<?xml version="1.0" encoding="utf-8"?>
<!-- Generator: Adobe Illustrator 23.0.3, SVG Export Plug-In . SVG Version: 6.00 Build 0)  -->
<svg version="1.1" xmlns="http://www.w3.org/2000/svg" xmlns:xlink="http://www.w3.org/1999/xlink" x="0px" y="0px"
	 viewBox="0 0 100.3 152.88" style="enable-background:new 0 0 100.3 152.88;" xml:space="preserve">
<style type="text/css">
	.st0{fill:#FFD68B;}
	.st1{fill:#1A6344;}
	.st2{fill:#FF0000;}
	.st3{fill:#008C47;}
	.st4{fill:#6A3E15;}
	.st5{fill:#F5C982;}
	.st6{display:none;fill:#1C1C1B;}
	.st7{fill:#FF9697;}
	.st8{fill:none;stroke:#6A3E15;stroke-width:2.3094;stroke-linecap:round;stroke-miterlimit:10;}
	.st9{fill:#FFBF00;}
</style>
<g id="OBJECTS">
</g>
<g id="DESIGNED_BY_FREEPIK">
	<path class="st0" d="M12.31,95.68c0.83,1.84-0.86,3.93-2.62,4.5c-1.08,0.35-2.05-0.07-2.89-0.81c-2.92-1.88-5.35-6.02-3.69-9.05
		c0.19-0.35,0.79-0.52,1.09-0.17l2.14,2.59c0.36,0.43,0.71,0.86,1.07,1.29c0.05,0.04,0.08,0.08,0.11,0.11
		c0.02-0.01,0.04-0.02,0.07-0.02c-0.04-0.06-0.1-0.14-0.18-0.25c-0.06-0.7-1.11-1.9-0.51-2.51C8.54,89.7,11.8,94.54,12.31,95.68z"/>
	<g>
		<path class="st1" d="M26.36,123.03c0.96,0.17,3.5-10.64,4.17-10.83c6.7-1.87-9.79-1.7-12.65-5.25c-2.71-3.35-1.84-8.92-2.87-9.56
			c-0.07,0.34-0.19,0.67-0.38,0.97l-4.25,4.28c-0.35,0.57,0.59,1.27,0.01,1.51c-0.1,2.28,1.19,8.72,1.29,9.32
			c0.76,4.71,7.9,3.52,12.92,4.96C26.34,118.93,24.55,122.72,26.36,123.03z"/>
		<path class="st2" d="M10.3,103.97c0.62-0.1,1.21-0.39,1.68-0.87l3.74-3.84c0.25-0.26,0.44-0.55,0.58-0.87
			c0.5-1.12,0.29-2.5-0.64-3.4l0,0c-1.03-1-2.61-1.12-3.77-0.35c-0.18,0.12-0.34,0.25-0.5,0.41L7.65,98.9
			c-0.02,0.02-0.04,0.05-0.06,0.07c-1.09,1.19-1.05,3.06,0.12,4.2C8.42,103.86,9.39,104.12,10.3,103.97z"/>
	</g>
	<path class="st0" d="M86.75,97.65c-0.83,1.84,0.86,3.93,2.62,4.5c1.08,0.35,2.05-0.07,2.89-0.81c2.92-1.88,5.35-6.02,3.69-9.05
		c-0.19-0.35-0.79-0.52-1.09-0.17l-2.14,2.59c-0.36,0.43-0.71,0.86-1.07,1.29c-0.05,0.04-0.08,0.08-0.11,0.11
		c-0.02-0.01-0.04-0.02-0.07-0.02c0.04-0.06,0.1-0.14,0.18-0.25c0.06-0.7,1.11-1.9,0.51-2.51C90.53,91.67,87.27,96.51,86.75,97.65z"
		/>
	<g>
		<path class="st1" d="M72.7,125c-0.96,0.17-3.5-10.64-4.17-10.83c-6.7-1.87,9.79-1.7,12.65-5.25c2.71-3.35,1.84-8.92,2.87-9.56
			c0.07,0.34,0.19,0.67,0.38,0.97l4.25,4.28c0.35,0.57-0.59,1.27-0.01,1.51c0.1,2.28-1.19,8.72-1.29,9.32
			c-0.76,4.71-7.9,3.52-12.92,4.96C72.73,120.9,74.52,124.69,72.7,125z"/>
		<path class="st2" d="M88.77,105.94c-0.62-0.1-1.21-0.39-1.68-0.87l-3.74-3.84c-0.25-0.26-0.44-0.55-0.58-0.87
			c-0.5-1.12-0.29-2.5,0.64-3.4l0,0c1.03-1,2.61-1.12,3.77-0.35c0.18,0.12,0.34,0.25,0.5,0.41l3.73,3.84
			c0.02,0.02,0.04,0.05,0.06,0.07c1.09,1.19,1.05,3.06-0.12,4.2C90.65,105.83,89.68,106.09,88.77,105.94z"/>
	</g>
	<path class="st3" d="M21.76,133.15c3.75,8.28-7.1,18.34,5.47,18.95c1.95,0.03,47.82,0.82,49.78,0.78
		c12.57-0.61-1.27-11.45,2.48-19.73C60.44,136.36,40.81,136.36,21.76,133.15z"/>
	<path class="st3" d="M81.18,126.15c0.07-1.81-0.15-3.63-0.69-5.4c-0.36-1.44-0.71-2.87-1.05-4.31
		c-3.76-13.29-13.92-24.59-26.74-24.58c-1.38,0-2.77,0-4.15,0c-12.82-0.01-22.98,11.3-26.74,24.58c-0.34,1.44-0.69,2.88-1.05,4.31
		c-0.54,1.77-0.76,3.59-0.69,5.4C40.18,129.95,61.07,129.95,81.18,126.15z"/>
	<path class="st4" d="M20.07,126.15c0.09,2.37,0.67,4.74,1.7,7.01c19.05,3.2,38.67,3.2,57.72,0c1.03-2.27,1.61-4.63,1.7-7.01
		C61.07,129.95,40.18,129.95,20.07,126.15z"/>
	<path class="st2" d="M31.87,98.82l19.21,4.21c0,0-10.62,14.73-19.9,10.31C21.9,108.92,31.87,98.82,31.87,98.82z"/>
	<path class="st2" d="M69.49,98.82l-18.77,4.21c0,0,10.62,14.73,19.9,10.31C79.9,108.92,69.49,98.82,69.49,98.82z"/>
	<path class="st5" d="M99.84,64.56c-0.45-0.96-0.88-0.61-1.78-0.17c-3.53,1.72-6.94,2.98-9.93,5.66c-1.48,1.32-2.95,2.93-4.02,4.61
		c-0.9,1.42-1.49,3.08-1.37,4.76c0.19,2.56,2.31,4.69,4.92,4.69c2.14-0.02,4.36-1,5.89-2.48c2.56-2.49,4.62-5.59,5.79-8.97
		c0.6-1.74,0.96-3.56,0.96-5.4c0-0.8-0.08-1.72-0.37-2.47C99.9,64.7,99.87,64.63,99.84,64.56z"/>
	<path class="st5" d="M0.46,64.56c0.45-0.96,0.88-0.61,1.78-0.17c3.53,1.72,6.94,2.98,9.93,5.66c1.48,1.32,2.95,2.93,4.02,4.61
		c0.9,1.42,1.49,3.08,1.37,4.76c-0.19,2.56-2.31,4.69-4.92,4.69c-2.14-0.02-4.36-1-5.89-2.48c-2.56-2.49-4.62-5.59-5.79-8.97
		c-0.6-1.74-0.96-3.56-0.96-5.4c0-0.8,0.08-1.72,0.37-2.47C0.4,64.7,0.43,64.63,0.46,64.56z"/>
	<path class="st0" d="M54.51,103.05H46.2c-19.9,0-36.18-16.28-36.18-36.18v-4.93c0-19.9,16.28-36.18,36.18-36.18h8.31
		c19.9,0,36.18,16.28,36.18,36.18v4.93C90.7,86.77,74.41,103.05,54.51,103.05z"/>
	<path class="st6" d="M32.4,83.75L32.4,83.75c-1.06,0-1.93-0.87-1.93-1.93v-7.23c0-1.06,0.87-1.93,1.93-1.93l0,0
		c1.06,0,1.93,0.87,1.93,1.93v7.23C34.33,82.88,33.46,83.75,32.4,83.75z"/>
	<path class="st6" d="M68.43,83.75L68.43,83.75c-1.06,0-1.93-0.87-1.93-1.93v-7.23c0-1.06,0.87-1.93,1.93-1.93l0,0
		c1.06,0,1.93,0.87,1.93,1.93v7.23C70.35,82.88,69.49,83.75,68.43,83.75z"/>
	<ellipse class="st7" cx="50.33" cy="81.37" rx="8.3" ry="6.69"/>
	<path class="st8" d="M40.33,91.15c4.66,7.93,15.4,7.93,20.11,0"/>
	<path class="st9" d="M10.05,68.41c0,0,55.9-3.84,61.19-16.6c5.29-12.76-54.73-10.89-59.06,0.62S10.05,68.41,10.05,68.41z"/>
	<path class="st9" d="M64.29,51.58c0,0,18.13,18.59,24.81,17.49c6.68-1.1-0.59-18.74-0.59-18.74L64.29,51.58z"/>
	<g>
		<path class="st2" d="M30.6,39.72c4.42-0.52,8.86-0.87,13.3-1.04c4.28-0.16,8.57-0.16,12.86,0c4.42,0.17,8.84,0.51,13.24,1.03
			c4.35,0.51,8.67,1.2,12.97,2.05c1.88,0.37,3.76,0.78,5.63,1.22c-5.24-15.54-20.37-26.78-38.21-26.78
			c-17.84,0-32.95,11.22-38.2,26.75c1.81-0.42,3.63-0.82,5.45-1.18C21.93,40.93,26.26,40.24,30.6,39.72z"/>
		<g>
			<path class="st3" d="M4.82,52.48c0.14,0.39,0.28,0.77,0.41,1.16c1.41,3.8,6.02,5.86,10.32,4.84c1.13-0.27,2.26-0.51,3.4-0.75
				c-0.32-1.2-0.58-2.41-0.76-3.64c-0.62-4.09-0.93-8.19-0.81-12.25c-2.07,0.41-4.14,0.85-6.19,1.34
				C6.24,44.36,3.41,48.69,4.82,52.48z"/>
			<path class="st3" d="M56.46,54.58c4.24,0.17,8.47,0.53,12.68,1.06c0.47-3.33,0.85-6.67,0.92-10.03c0.04-1.94,0.02-3.88-0.04-5.82
				c-4.42-0.52-8.86-0.86-13.31-1.03C56.89,44.03,56.8,49.31,56.46,54.58z"/>
			<path class="st3" d="M82.25,54.1c-0.19,1.22-0.44,2.43-0.76,3.62c1.16,0.25,2.31,0.49,3.46,0.77c4.3,1.01,8.92-1.04,10.32-4.84
				c0.14-0.39,0.28-0.77,0.41-1.16c1.41-3.8-1.43-8.12-6.37-9.29c-2.08-0.49-4.17-0.94-6.26-1.36C83.18,45.9,82.87,50,82.25,54.1z"
				/>
			<path class="st3" d="M30.38,45.61c0.08,3.37,0.45,6.71,0.93,10.04c4.23-0.54,8.48-0.89,12.74-1.07
				c-0.34-5.27-0.43-10.55-0.26-15.82c-4.47,0.17-8.93,0.51-13.38,1.04C30.36,41.73,30.34,43.67,30.38,45.61z"/>
			<path class="st1" d="M44.05,54.58c4.14-0.17,8.28-0.17,12.41,0c0.34-5.27,0.43-10.55,0.26-15.82c-4.31-0.16-8.62-0.16-12.93,0
				C43.62,44.03,43.71,49.31,44.05,54.58z"/>
			<path class="st1" d="M18.19,54.1c0.19,1.22,0.44,2.44,0.76,3.64c4.09-0.87,8.21-1.56,12.35-2.09c-0.47-3.33-0.85-6.67-0.93-10.04
				c-0.04-1.93-0.02-3.87,0.03-5.81c-4.37,0.51-8.72,1.2-13.04,2.06C17.26,45.91,17.57,50.01,18.19,54.1z"/>
			<path class="st1" d="M70.06,45.61c-0.08,3.36-0.45,6.7-0.92,10.03c4.14,0.52,8.27,1.21,12.36,2.08c0.32-1.2,0.57-2.4,0.76-3.62
				c0.62-4.09,0.93-8.2,0.81-12.26c-4.32-0.85-8.67-1.54-13.04-2.05C70.08,41.73,70.1,43.67,70.06,45.61z"/>
		</g>
	</g>
	<path class="st9" d="M54.05,124.82h-5.92c-2.1,0-3.81,1.71-3.81,3.81v5.92c0,2.1,1.71,3.81,3.81,3.81h5.92
		c2.1,0,3.81-1.71,3.81-3.81v-5.92C57.86,126.54,56.14,124.82,54.05,124.82z M53.7,132.74c0,0.81-0.66,1.47-1.47,1.47h-2.29
		c-0.81,0-1.47-0.66-1.47-1.47v-2.29c0-0.81,0.66-1.47,1.47-1.47h2.29c0.81,0,1.47,0.66,1.47,1.47V132.74z"/>
	<g>
		<path class="st3" d="M49.65,0.85c0.41-0.47,1.07-0.47,1.48,0c0.41,0.47,1.17,0.59,1.71,0.27C53.36,0.8,54,1.01,54.24,1.58
			c0.24,0.57,0.93,0.92,1.54,0.78c0.6-0.14,1.14,0.25,1.2,0.87c0.05,0.62,0.6,1.17,1.22,1.22c0.62,0.05,1.01,0.59,0.87,1.2
			c-0.14,0.6,0.21,1.3,0.78,1.54c0.57,0.24,0.78,0.88,0.46,1.41c-0.32,0.53-0.2,1.3,0.27,1.71c0.47,0.41,0.47,1.07,0,1.48
			c-0.47,0.41-0.59,1.17-0.27,1.71c0.32,0.53,0.11,1.16-0.46,1.41c-0.57,0.24-0.92,0.93-0.78,1.54c0.14,0.6-0.25,1.14-0.87,1.2
			c-0.62,0.05-1.17,0.6-1.22,1.22c-0.05,0.62-0.59,1.01-1.2,0.87c-0.6-0.14-1.3,0.21-1.54,0.78c-0.24,0.57-0.88,0.78-1.41,0.46
			c-0.53-0.32-1.3-0.2-1.71,0.27s-1.07,0.47-1.48,0c-0.41-0.47-1.17-0.59-1.71-0.27c-0.53,0.32-1.17,0.11-1.41-0.46
			c-0.24-0.57-0.93-0.92-1.54-0.78c-0.6,0.14-1.14-0.25-1.2-0.87c-0.05-0.62-0.6-1.17-1.22-1.22c-0.62-0.05-1.01-0.59-0.87-1.2
			c0.14-0.6-0.21-1.3-0.78-1.54c-0.57-0.24-0.78-0.88-0.46-1.41c0.32-0.53,0.2-1.3-0.27-1.71c-0.47-0.41-0.47-1.07,0-1.48
			c0.47-0.41,0.59-1.17,0.27-1.71c-0.32-0.53-0.11-1.16,0.46-1.41c0.57-0.24,0.92-0.93,0.78-1.54c-0.14-0.6,0.25-1.14,0.87-1.2
			c0.62-0.05,1.17-0.6,1.22-1.22c0.05-0.62,0.59-1.01,1.2-0.87c0.6,0.14,1.3-0.21,1.54-0.78c0.24-0.57,0.88-0.78,1.41-0.46
			C48.47,1.44,49.24,1.32,49.65,0.85z"/>
	</g>
</g>
</svg>
