<?xml version="1.0" encoding="utf-8"?>
<!-- Generator: Adobe Illustrator 23.0.3, SVG Export Plug-In . SVG Version: 6.00 Build 0)  -->
<svg version="1.1" id="Warstwa_1" xmlns="http://www.w3.org/2000/svg" xmlns:xlink="http://www.w3.org/1999/xlink" x="0px" y="0px"
	 viewBox="0 0 311.28 101.74" style="enable-background:new 0 0 311.28 101.74;" xml:space="preserve">
<style type="text/css">
	.st0{fill:#0A1F2F;}
</style>
<g>
	<path class="st0" d="M49.29,61.67c-0.46-0.22-1.25-0.32-1.56-0.72c-0.43-0.55,0.12-1.26,0.17-1.82c0.08-0.85-0.37-1.58-0.95-2.23
		c-0.86-0.97-1.91-1.73-2.18-3.01c-0.14-0.68-0.08-1.36,0.2-1.99c0.19-0.42,0.61-0.8,0.63-1.28c0.05-0.83-0.9-1.3-1.54-1.7
		c-1.24-0.78-2.49-1.56-3.75-2.32c0.91-1.63,1.48-3.41,1.63-5.27c0.13-1.67,0.03-3.71-0.78-5.24c1.49-0.78,2.44-2.43,2.3-4.15
		c-0.02-0.21-0.19-0.45-0.43-0.42c-1.47,0.2-2.74,0.87-3.68,1.97c-0.05-0.09-0.13-0.18-0.25-0.25c-1.51-0.88-3.17-1.48-4.93-1.72
		c-1.94-0.26-3.82,0.07-5.75-0.05c-1.99-0.12-3.92-0.81-5.64-1.78c-1.53-0.86-2.76-1.98-4.15-2.97c-0.11-2.74-0.08-5.62,1.16-8.12
		c0.44-0.88,1.19-1.81,0.92-2.86c-0.14-0.55-0.52-0.96-0.98-1.25c0.03-0.03,0.05-0.06,0.08-0.1l0.09-0.16
		c0.41-0.7,0.79-1.36,1.36-1.94c0.01-0.01,0.02-0.03,0.04-0.04c1.56-0.15,3.13-0.46,4.65-0.76c0.59-0.12,1.17-0.23,1.76-0.34
		l0.81-0.15c1.89-0.35,3.85-0.7,5.77-1.07c0.27-0.05,0.48-0.18,0.63-0.37c0.15-0.06,0.27-0.16,0.36-0.3
		c1.24-1.93,2.66-3.75,4.05-5.52c0.75-0.96,1.53-1.94,2.27-2.94c0.15-0.2,0.13-0.47-0.05-0.64c-0.19-0.18-0.5-0.2-0.7-0.03
		c-2.73,2.27-4.91,5.36-6.68,8.12c-0.04,0-0.08,0.01-0.12,0.02c-1.97,0.38-3.97,0.77-5.9,1.16L27.2,9.6
		c-0.56,0.11-1.13,0.22-1.7,0.32L25,10.02c-0.18-0.4-0.37-0.81-0.55-1.21c-0.4-0.88-0.81-1.78-1.2-2.68
		c-0.42-0.98-0.15-2.04,0.14-3.16c0.12-0.47,0.24-0.95,0.31-1.43c0.05-0.34-0.15-0.64-0.47-0.72c-0.32-0.08-0.63,0.09-0.75,0.41
		c-0.05,0.14-0.11,0.29-0.16,0.44c-0.46,1.22-1.08,2.89-0.77,4.17c0.28,1.17,0.84,2.34,1.38,3.47c0.17,0.35,0.33,0.69,0.48,1.02
		c-1.04,0.21-1.85,0.42-2.61,0.64c-0.01,0-0.03,0.01-0.04,0.01c-0.03,0-0.06,0-0.09,0c-0.46-0.35-0.93-0.69-1.4-1.04
		c-1.09-0.81-2.22-1.64-3.29-2.51c-1.61-1.31-2.29-2.51-2.42-4.29c-0.02-0.32-0.26-0.57-0.57-0.61C12.66,2.5,12.37,2.69,12.27,3
		c-0.7,2.08,1,4.07,1.77,4.82c1.24,1.23,2.69,2.29,4.09,3.31c0.39,0.28,0.79,0.58,1.18,0.87c-0.7-0.27-1.42-0.5-2.12-0.72
		c-0.62-0.2-1.27-0.4-1.89-0.63c-1.44-0.54-2.44-1.38-3.69-2.51c-0.18-0.16-0.44-0.19-0.65-0.06c-0.2,0.12-0.3,0.36-0.24,0.6
		c0.67,2.59,3.77,3.54,6.26,4.3c0.68,0.21,1.32,0.4,1.87,0.61c-0.04,0.12-0.07,0.24-0.1,0.36c-0.01,0.05-0.01,0.09-0.01,0.13
		c-2.05-0.49-4.28,0.43-6.26,0.85c-2.02,0.43-5.02,0.02-6.18,2.19c-0.02,0.04-0.03,0.09-0.04,0.13c-0.49,0.55-0.2,1.61,0.39,2.15
		c1.35,1.22,4.08,1.13,5.18,2.49c-0.82,1.33-1.8,2.56-2.42,4c-0.65,1.53-1,3.17-1.25,4.81c-0.3,1.95-0.85,4.53-0.1,6.51
		c-1.29-0.23-2.59-0.4-3.88-0.61c-0.9-0.14-1.79-0.28-2.69-0.42c-0.37-0.06-0.88-0.21-1.22,0.04c-0.73,0.54,0.27,1.6,0.57,2.07
		c0.94,1.45,1.89,2.9,2.85,4.34c-1.17-0.34-2.48,0.47-2.65,1.7c-0.12,0.85,0.38,1.71,0.7,2.46c0.51,1.18,1.03,2.36,1.57,3.52
		c1.05,2.27,2.18,4.5,3.38,6.69c0.79,1.45,1.89,3.07,3.77,2.62c0.13-0.03,0.2-0.12,0.21-0.23c0.03-0.03,0.06-0.07,0.08-0.11
		c0.34-0.85,0.18-1.83-0.39-2.54c-0.59-0.74-1.37-0.85-2.19-1.09c-0.68-1.46-1.32-2.92-1.91-4.42c-0.36-0.91-0.71-1.83-1.04-2.76
		c-0.37-1.03-1.76-4.02,0.65-3.69c0.02,0,0.04,0,0.06,0c0,0.03,0.02,0.06,0.05,0.08c1.19,0.83,2.17,1.49,2.87,2.82
		c0.44,0.83,0.77,1.76,1.57,2.32c0.49,0.35,1.1,0.5,1.6,0.83c0.47,0.3,0.86,0.71,1.32,1.02c0.75,0.52,1.59,0.79,2.47,0.43
		c0.22-0.09,0.24-0.35,0.14-0.49c0-0.02-0.01-0.03-0.01-0.05c-0.33-0.91-0.64-2.04-1.27-2.79c-0.61-0.73-1.41-0.66-2.25-0.69
		c-1.39-1.11-2.42-2.43-3.58-3.74c7.28-1.7,14.43,1.41,21.59,2.47c0.25,0.89,0.75,1.73,1.36,2.44c-0.16,0.61-0.29,1.22-0.42,1.82
		c0,0,0,0,0,0.01c-1.15,0.54-2.31,1.11-3.37,1.79c-1.02,0.65-1.49,1.43-1.77,2.59c-0.74,3.06-1.24,6.21-1.58,9.34
		c-0.01,0.08,0.15,0.84,0.43,0.61c0.99-0.84,2.58-1.95,3.01-3.23c0.1-0.31,0.12-0.61-0.01-0.91c-0.07-0.17-0.2-0.27-0.3-0.41
		c-0.2-0.26-0.38-0.5-0.52-0.77c0.54-0.6,1.46-1.04,1.41-1.8c-0.02-0.29-0.21-0.45-0.36-0.68c-0.3-0.49-0.41-0.95-0.37-1.41
		c0.79-0.79,2.14-1.09,3.13-1.46c1.37-0.51,2.74-1.01,4.1-1.54c0.67-0.27,1.81-0.54,2.22-1.2c0.19-0.3,0.22-0.7,0.19-1.12
		c0.1,0.04,0.2,0.09,0.3,0.13c1.51,0.63,3.09,0.97,4.71,1.08c0.67,3.1,1.77,6.09,2.88,9.06c0.87,2.34,1.9,4.44,4.69,4.58
		c0.11,0.01,0.19-0.05,0.23-0.12c0.03-0.02,0.05-0.05,0.07-0.08C51.52,64.38,50.94,62.45,49.29,61.67z"/>
	<path class="st0" d="M12.08,36.78c33.96,5.33,71.05,7.71,107.8,6.58c18.95-0.58,37.13-2.37,55.63-3.79
		c15.93-1.22,32.27-2.08,48.6-1.21c15.71,0.83,30.91,3.2,41.26,7.69c0.49,0.21-0.52,0.52-1.02,0.31
		c-22.68-9.67-61.13-8.44-91.52-6.01c-17.55,1.4-34.89,3.01-52.89,3.56c-17.41,0.53-35.02,0.29-52.34-0.68
		c-19.31-1.09-38.26-3.11-56.08-6.06C10.84,37.03,11.39,36.67,12.08,36.78z"/>
	<path class="st0" d="M9.48,32.66c30.63,6.41,64.64,9.29,99.15,9.38c18.43,0.05,36.72-0.64,54.68-1.78
		c16.33-1.04,32.73-2.5,49.6-1.03c16.57,1.45,31.27,5.07,43.85,9.21c0.58,0.19-0.23,0.48-0.82,0.29
		c-12.26-3.95-26.36-7.44-42.27-8.93c-17.85-1.67-35.23,0.04-52.54,1.1c-33.17,2.02-67.77,2.48-101.38-0.41
		c-17.69-1.52-35.24-3.94-50.8-7.51C8.38,32.85,8.87,32.54,9.48,32.66z"/>
	<path class="st0" d="M193.99-24.56c0.2,0.01,0.18,0.33-0.02,0.31C193.76-24.26,193.78-24.58,193.99-24.56z"/>
	<path class="st0" d="M310.94,48.2c-1.47-0.57-2.9-1.03-4.31-1.37c0.37-1.29,0.61-2.7,0.38-3.98c-0.24-1.36-1.28-2.06-1.76-3.28
		c-1.02-2.58,1.28-5.77-1.75-7.71c-0.44-0.28-2.66-0.31-3.16-0.4c-0.07-1.52,1.35-1.11,1.67-2.67c0.1-0.49-0.33-0.8-0.77-0.72
		c-2.31,0.4-3.73,0.69-5.6-0.88c-0.61-0.51-1.61-0.51-1.15,0.2c1.42,2.21,2.71,2.3,3.66,4.57c-0.31,0.16-0.6,0.33-0.87,0.52
		c-0.65,0.46-1.13,1.06-1.54,1.71c-2.02-0.32-4.2,0.22-5.85,1.48c-1.61,1.22-2.46,2.91-2.89,4.75c-0.94,0.21-1.86,0.57-2.76,1.28
		c-0.73,0.58-1.36,1.28-1.88,2.05c-0.18,0-0.36,0.01-0.54,0.03c0-0.01,0.01-0.02,0.01-0.03c0.25-1.36-0.04-2.65-0.73-3.71
		c0.65-0.33,1.26-0.71,1.81-1.16c0.01-0.01,0.01-0.01,0.02-0.02c0.01,0.01-0.43-1.75-0.83-2.44c3.18,0.26,6.45-1.14,7.72-4.26
		c0.36,0.18,0.76,0.28,1.19,0.26c1.28-0.08,2.26-1.19,2.18-2.47c-0.08-1.28-1.19-2.26-2.47-2.18h0c-1.28,0.08-2.26,1.19-2.18,2.47
		c0.02,0.25,0.08,0.48,0.17,0.7c-3.07,0.2-3.58-3.84-4.96-5.67c-0.7-0.92-1.59-1.65-2.58-2.22c-2.26-1.3-5.03-1.68-7.58-1.26
		c-4.31,0.69-6.08,3.71-5.32,7.17c-0.41,0.22-0.77,0.57-1.07,0.98c-0.84,1.15-1.41,2.56-2.01,3.86c-1.87,0.62-3.74,1.86-5.41,2.25
		c-0.42,0.1-0.53,0.48-0.42,0.8c-0.2-0.01-0.4-0.01-0.6,0c-0.96,0.05-3.56,1.36-4.42,0.46c0.07-0.16,0.14-0.32,0.2-0.49
		c0.09-0.24-0.42-1.14-0.71-1.02c-0.96,0.42-3.41-2.38-4.92-2.38c-1.44-0.01-2.76,0.9-3.67,1.93c-2.06,2.32-1.59,5.28,0.65,7.27
		c0.52,0.46,1.12,0.83,1.72,1.18c0.53,0.29,1.06,0.56,1.6,0.82c0.88,0.37,1.54,0.97,1.98,1.8c0.45,0.31,0.95,0.44,1.35,0.64
		c1.12,0.59,1.93,1.66,3.3,1.96c0,0,0.01,0,0.01,0c-0.37,2.14-1.09,4.12-2.99,5.61c-0.23,0.18-0.55,0.87-0.61,1.06
		c-0.19,0.63-0.25,1.22-0.2,1.78c-0.28,0.16-0.56,0.33-0.83,0.53c-0.32,0.23-0.62,0.48-0.92,0.73c-3.14-0.9-6.52,1.07-8.42,3.98
		c-2.13,3.26-1.92,6.88-0.15,9.94c-3.56-0.06-9.37-1.13-11.48,2.31c-0.39,0.64,0.23,1.18,0.81,1.11l3.21,0.75
		c-2.13,1.63-4.9,3.44-7.75,4.4c-0.74-0.7-1.37-1.48-1.81-2.36c-0.47-0.95-0.82-3.55-0.4-5.39c0.23,0.92,0.96,1.68,1.95,1.9
		c1.4,0.3,2.78-0.58,3.08-1.98c0.3-1.4-0.58-2.78-1.98-3.08c-0.18-0.04-0.36-0.06-0.54-0.06c-2.85-0.6-4.23,2.85-4.16,5.86
		c0.05,2.2,1,4.02,2.4,5.53c-2.06,0.47-4.11,0.4-5.94-0.59c-1.01-0.94-1.86-1.99-2.4-3.19c-0.48-1.07-0.74-3.95-0.2-5.96
		c0.22,1.03,0.98,1.9,2.06,2.18c1.53,0.4,3.09-0.52,3.48-2.04c0.4-1.53-0.52-3.09-2.04-3.48c-0.2-0.05-0.4-0.08-0.6-0.09
		c-3.12-0.79-4.79,2.95-4.85,6.27c-0.05,2.64,1.09,4.82,2.79,6.65c0.06,0.1,0.16,0.21,0.29,0.32c2.41,2.44,5.82,4.2,8.67,5.46
		c9.96,4.39,19.93,7.24,30.73,8.7c5.97,0.81,11.98,1.36,17.94,2.27c5.27,0.8,10.21,2.58,15.4,3.62c0.75,0.15,1.05-0.96,0.3-1.16
		c-3.22-0.85-6.38-1.65-9.56-2.35c0-0.01,0.01-0.01,0.01-0.02c0.09-0.83,0.12-1.76,0.11-2.75c3.72,0.66,7.35,1.67,11.1,2.26
		c0.68,0.11,0.91-0.91,0.23-1.06c-2.95-0.65-5.84-1.25-8.75-1.77c0-0.01,0-0.01,0-0.02c0.13-2.08-0.13-4.81-0.5-7.46
		c0.73,0.02,1.45,0.02,2.15-0.01c4.73-0.19,8.17-3.03,11.24-6.49c7.39-8.31,10.23-18.99,10.66-29.93c1-0.74,2.16-1.28,3.41-1.54
		C311.36,49.32,311.47,48.41,310.94,48.2z M275.13,86.36l0.02-0.07c1.23,0.31,2.49,0.55,3.76,0.74c0.21,2.32,0.5,4.83,0.61,7.16
		c-1.99-0.29-3.99-0.52-6.04-0.69c-7.87-0.64-15.72-1.24-23.49-2.77c-6.03-1.18-12.56-3.39-18.13-6.09
		c-0.45-0.22-0.92-0.46-1.39-0.71c1.26,0.1,2.51-0.03,3.75-0.4c2.06-0.61,5.19-3.05,7.23-5.05L275.13,86.36z M236.18,77.25
		l3.38,0.79c-2.79,2.17-6.51,4.38-9.93,4.24C231.99,80.95,234.63,78.83,236.18,77.25z M279.47,97.86c-3.18-0.67-6.39-1.23-9.7-1.64
		c-8.64-1.07-17.27-2.09-25.75-4.12c-6.59-1.58-13.68-4.31-19.7-7.54c-0.49-0.26-0.99-0.55-1.5-0.84c1.38,0.17,2.77,0.08,4.14-0.27
		c0.03-0.01,0.07-0.02,0.1-0.03c2.07,1.52,4.55,2.64,6.68,3.48c9.19,3.61,18.33,5.81,28.17,6.73c5.44,0.51,10.91,0.78,16.34,1.38
		c0.43,0.05,0.85,0.1,1.27,0.16C279.56,96.12,279.55,97.03,279.47,97.86z M282.31,94.62c-0.35-0.06-0.71-0.12-1.06-0.17
		c-0.07-2.33-0.32-4.89-0.62-7.21c0.37,0.04,0.74,0.07,1.11,0.1C282.09,89.88,282.42,92.5,282.31,94.62z"/>
	<path class="st0" d="M210.67,58.86c-0.41-1.7-1.76-2.23-3.26-2.26c-1.38-0.58-2.43-1.69-3.66-2.53c-0.93-0.64-1.87-1.23-2.81-1.84
		c-0.49-0.79-0.93-1.61-1.32-2.46c-0.29-0.64-0.54-1.28-1.26-1.53c-0.91-0.31-2.13,0.01-3.05,0.09c-0.68,0.06-1.36,0.11-2.04,0.16
		c-0.04-0.03-0.08-0.06-0.14-0.07c-1.4-0.37-2.63-1.31-3.16-2.7c-0.51-1.33-0.3-2.78-0.51-4.15c-0.17-1.13-0.69-2.2-1.53-2.89
		c0.39-0.06,0.75-0.23,0.99-0.6c0.36-0.55,0.26-1.3,0.22-1.92c-0.05-0.8,0.03-1.78-0.27-2.54c-0.52-1.33-1.83-0.39-2.64,0.13
		c-1.05,0.67-1.94,1.46-2.43,2.55c-2.44,0.13-4.88,0.28-7.32,0.43c-2.29,0.13-4.61,0.19-6.91,0.39c-1.14-0.62-2.28-1.24-3.39-1.92
		c-0.92-0.56-1.81-1.17-2.71-1.75c-0.56-2.49-1.06-5.06-1.85-7.47c0.41-0.95,0.84-1.88,1.03-2.73c0.26-1.15,0.01-2.57-1.08-3.07
		c0.44-2.11,0.93-3.73,1.48-4.81c1.6-0.01,3.23-0.14,4.82-0.27c1.13-0.09,2.3-0.19,3.44-0.24c3.15-0.12,6.22-0.17,9.11-0.15
		c0.34,0,0.63-0.17,0.78-0.45c0.09-0.07,1.33-2.19,1.87-3.13l0.02-0.04c1.06-1.82,2.15-3.71,3.11-5.62
		c0.17-0.33,0.05-0.72-0.27-0.91c-0.31-0.18-0.69-0.09-0.89,0.21c-1.2,1.78-2.3,3.65-3.36,5.47c-0.52,0.88-1.05,1.79-1.59,2.68
		c-0.66,0.01-1.36,0.02-2.14,0.04c0.21-1.15,0.62-2.21,1.06-3.33l0.01-0.03c0.11-0.29,0.23-0.59,0.34-0.88
		c0.12-0.34-0.02-0.7-0.35-0.87c-0.32-0.16-0.69-0.07-0.89,0.22c-0.99,1.46-1.44,3.17-1.84,4.94c-0.62,0.02-1.23,0.04-1.82,0.07
		c0-0.01,0-0.01-0.01-0.02c-0.56-1.25-0.46-2.45,0.33-4.03c0.14-0.28,0.05-0.62-0.21-0.81c-0.26-0.19-0.61-0.16-0.83,0.06
		c-1.29,1.33-1.41,3.35-0.96,4.87c-0.62,0.03-1.23,0.07-1.82,0.11c-0.14,0.01-0.29,0.02-0.44,0.03c-0.04-0.04-0.08-0.08-0.13-0.11
		c-1.08-0.73-1.94-1.67-2.7-2.52c0-0.04-0.12-0.34-0.13-0.39c-0.2-0.87-0.23-1.4-0.32-2.13c-0.03-0.25-0.05-0.52-0.06-0.81
		c-0.03-0.57-0.06-1.15-0.25-1.71c-0.08-0.25-0.31-0.41-0.57-0.41c-0.25,0-0.47,0.16-0.55,0.41c-0.45,1.43-0.09,3.28,0.2,4.77
		c0.03,0.17,0.06,0.33,0.09,0.49c0.04,0.21,0.28,0.73,0.45,0.84c0.44,0.68,0.89,1.01,1.64,1.71c-1.91,0.11-3.78,0.26-5.58,0.64
		c-0.04-0.01-0.07-0.02-0.11-0.03c-1.36-0.28-2.6-0.69-3.97-1.15c-0.12-0.31-0.23-0.62-0.35-0.93l-0.02-0.06
		c-0.68-1.82-1.38-3.7-2.21-5.47c-0.15-0.31-0.49-0.45-0.83-0.33c-0.33,0.12-0.5,0.46-0.41,0.79c0.52,1.87,1.21,3.74,1.88,5.54
		c0.13,0.34,0.25,0.68,0.38,1.02c0.09,0.25,0.28,0.43,0.53,0.51c1.3,0.76,2.73,1.2,3.78,1.44c-0.31,0.75-0.56,1.48-0.74,2.19
		l-0.6-0.03c-1.9-0.09-3.87-0.18-5.8-0.41c-0.02,0-0.04,0-0.07,0c-0.28-0.36-0.58-0.69-0.89-1.02l-0.02-0.02
		c-0.12-0.13-0.24-0.26-0.36-0.39l-1.74-1.94c-0.18-0.21-0.45-0.3-0.72-0.24c-0.28,0.06-0.51,0.27-0.6,0.55
		c-0.08,0.26-0.01,0.53,0.18,0.74l1.78,1.9h0c0.13,0.13,0.25,0.27,0.38,0.41c0.42,0.46,0.85,0.93,1.36,1.32c0,0,0.01,0.01,0.01,0.01
		c0.13,0.16,0.32,0.26,0.54,0.28c1.84,0.19,4.01,0.37,6.25,0.29c-0.02,0.16-0.05,0.35-0.07,0.47c-0.9-0.22-1.84-0.12-2.6,0.28
		c-2.84,1.48-5.81,1.02-8.71,2.45c-1.48,0.73-3.01,2.37-1.62,3.78c0.76,0.78,1.97,0.74,2.96,0.93c1.81,0.35,3.3,1.27,4,2.93
		c-0.73,0.8-1.38,1.68-1.75,2.69c-0.55,1.5-0.37,3.16-0.26,4.72c0.13,1.91,0.34,3.81,0.6,5.7c0.2,1.48,0.38,2.96,0.98,4.33
		c-1.34,0.26-2.66,0.56-3.99,0.86c-0.98,0.22-2.46,0.29-3.24,1.05c-1.68,1.63,1.66,3.91,2.72,4.75c2.04,1.62,4.33,2.99,6.8,3.84
		c2.29,0.8,5.23,1.48,7.56,0.51c0.15-0.06,0.21-0.2,0.2-0.32c0.07-0.07,0.1-0.17,0.06-0.29c-0.32-1.03-0.74-1.86-1.89-2.05
		c-0.56-0.09-1.2-0.05-1.83,0.05c-0.35-0.53-0.89-0.91-1.56-1.01c-0.52-0.08-1.04,0.06-1.54,0.17c-0.27,0.06-0.54,0.1-0.8,0.14
		c-0.92-0.87-1.88-1.78-2.91-2.57c1.11-0.03,2.21,0.01,3.33,0.12c1.04,0.1,2.14,0.3,3.17,0.03c1.74-0.45,2.5-2.22,3.78-3.34
		c2.77,1.66,6.58,2.06,9.73,1.98c3.14-0.08,6.2-0.8,9.04-2.1c1.33,1.77,3.4,2.93,5.55,3.36c2.89,0.58,5.93,0.13,8.64,1.51
		c0.01,0.01,0.02,0.01,0.03,0.01c2.7,3.3,5.61,8.24,10.98,7.71c0.18-0.02,0.26-0.13,0.28-0.25c0.07-0.07,0.11-0.18,0.07-0.3
		c-0.23-0.78-0.53-1.39-1.34-1.67c-0.54-0.19-1.22-0.28-1.85-0.24c-0.01-0.01-0.01-0.02-0.02-0.03c-1.93-1.78-3.69-3.66-5.34-5.68
		c1.45,1.37,2.73,2.92,4.43,4.02c2,1.29,4.29,2,6.65,2.15C210.85,59.76,210.71,59.02,210.67,58.86z"/>
	<path class="st0" d="M138.56,63.19c-0.09-0.95-0.54-1.81-1.31-2.39c-0.37-0.27-0.77-0.44-1.21-0.56c-0.75-0.2-1.08-0.13-1.73-0.72
		c-0.17-0.16-0.32-0.35-0.5-0.5c-0.84-0.72-1.91-1.05-2.94-1.38c-0.97-0.31-1.81-0.66-2.61-1.2c-0.01-0.01-0.01-0.03-0.02-0.04
		c-0.85-1.3-1.35-2.56-2.99-2.8c-1.79-0.26-3.72-0.56-5.58-0.63c-1.41-1.39-2.09-3.15-2.36-5.21c-0.21-1.58-0.66-2.91-1.53-4.09
		c1.26-0.7,2.15-1.89,1.97-3.55c-0.04-0.4-0.21-1.19-0.59-1.43c-0.36-0.23-0.85-0.01-1.22,0.11c-1.28,0.4-2.38,1.11-3.42,1.91
		c-1.5-1.56-3.76-2.3-6.13-2.16c-2.26,0.13-4.46,0.7-6.72,0.78c-2.08,0.08-4.06-0.21-6.08-0.58c-2.17-2.21-5.15-3.71-8.22-3.89
		c-1.16-1.58-2.25-3.21-3.39-4.8c0.25-1.32,0.49-2.64,0.37-3.94c-0.09-0.98-0.69-1.96-1.26-2.32c-0.23-0.14-0.44-0.24-0.62-0.3
		l0.02-0.06c0.7-2.86,3.23-4.88,5.66-6.84c0.7-0.56,1.37-1.1,2-1.66c3.22-2.87,6.08-5.88,8.49-8.94c0.01-0.01,0.02-0.03,0.03-0.04
		c0.11-0.09,0.18-0.21,0.23-0.36c0.44-1.47,0.75-3.02,0.95-4.9c0.04-0.35-0.18-0.65-0.52-0.7c-0.33-0.04-0.61,0.2-0.66,0.56
		c-0.19,1.38-0.52,2.84-1.03,4.57c-0.01,0.02-0.01,0.03-0.01,0.05c-0.33,0.38-0.66,0.75-0.98,1.12c-0.08-0.34-0.11-0.77-0.07-1.24
		c0.01-0.18,0.01-0.52-0.17-0.72c-0.08-0.08-0.18-0.13-0.28-0.13c-0.29,0-0.55,0.33-0.63,0.83c-0.15,0.91-0.14,1.75,0.02,2.51
		c-0.19,0.21-0.38,0.41-0.57,0.62c-0.08-0.2-0.15-0.41-0.23-0.61L92.7,7.53c-0.1-0.28-0.21-0.56-0.31-0.83c0-0.01,0-0.01-0.01-0.02
		c0.05-0.79,0.09-1.72,0.02-2.64c-0.03-0.31-0.28-0.53-0.58-0.51c-0.29,0.02-0.5,0.27-0.5,0.57c0.01,0.83,0,1.71-0.11,2.57
		c0,0.03-0.01,0.06,0,0.09c-0.03,0.12-0.03,0.24,0.01,0.35c0.08,0.27,0.17,0.53,0.25,0.8l0.03,0.09c0.13,0.42,0.27,0.85,0.4,1.28
		c-0.55,0.57-1.1,1.13-1.64,1.66c-0.14-1.22-0.33-2.4-0.59-3.52c-0.08-0.34-0.41-0.55-0.75-0.48c-0.35,0.07-0.57,0.41-0.5,0.75
		c0.31,1.52,0.48,3,0.52,4.51c-0.62,0.58-1.23,1.13-1.84,1.66c-0.08-0.08-0.16-0.16-0.24-0.24c-0.77-0.76-1.58-1.54-1.72-2.56
		c-0.05-0.34-0.08-0.68-0.1-1.01c-0.06-0.7-0.12-1.43-0.35-2.17C84.59,7.59,84.3,7.43,84,7.5c-0.3,0.07-0.49,0.35-0.44,0.65
		c0.09,0.49,0.1,1.05,0.12,1.59c0.02,0.79,0.05,1.61,0.29,2.36c0.33,1.03,1.19,1.86,1.95,2.6c0.03,0.03,0.06,0.06,0.09,0.08
		c-0.13,0.11-0.27,0.22-0.4,0.33c-0.27,0.22-0.55,0.45-0.83,0.67c-0.61,0.5-1.25,1.01-1.87,1.55c-0.29-0.22-0.58-0.43-0.87-0.65
		l-0.48-0.36c0.03-0.63,0.09-1.26,0.14-1.83c0.05-0.6,0.11-1.21,0.14-1.83c0.02-0.37-0.24-0.67-0.6-0.7
		c-0.35-0.03-0.65,0.2-0.71,0.55c-0.09,0.6-0.16,1.22-0.23,1.82c-0.07,0.65-0.15,1.32-0.26,1.97c-0.04,0.24,0.04,0.48,0.21,0.65
		c0.03,0.03,0.05,0.06,0.08,0.09c0.27,0.24,0.55,0.48,0.83,0.72c0.22,0.19,0.44,0.38,0.66,0.58c-0.95,0.95-1.66,1.88-2.15,2.82
		c-0.33-0.16-0.66-0.32-0.98-0.48c-0.78-0.37-1.66-0.79-2.47-1.25c-0.08-0.2-0.16-0.41-0.24-0.62c-0.25-0.65-0.5-1.32-0.84-1.93
		c-0.15-0.28-0.5-0.4-0.8-0.29c-0.28,0.11-0.43,0.4-0.36,0.7c0.17,0.7,0.43,1.38,0.68,2.04l0.22-0.08l-0.22,0.08l0,0
		c0.1,0.27,0.2,0.54,0.3,0.8c0.02,0.05,0.04,0.1,0.07,0.14c0.07,0.2,0.22,0.35,0.42,0.43c0.9,0.35,1.8,0.78,2.67,1.2
		c0.34,0.16,0.68,0.32,1.02,0.48c-0.09,0.27-0.17,0.56-0.23,0.86l-0.02,0.09c-1.5,0.11-2.75,0.94-4.33,1.31
		c-1.14,0.27-2.27,0.32-3.44,0.42c-0.78,0.06-1.56,0.19-2.23,0.62c-1.07,0.69-1.5,2.09-0.69,3.17c0.62,0.82,1.59,0.95,2.58,0.91
		c1.72,0.82,2.94,2.68,4.76,3.28c-0.69,4.8,1.15,10.15,4.11,13.96c-1.84,2.85-6.19,2.82-9.22,3.67c-3.67,1.04-6.7,2.41-10.11,4.11
		c-0.38,0.2-0.78,0.44-0.71,0.65c0.62,1.77,2.26,1.37,3.49,0.75c1.1-0.56,1.86-1.74,3.69-2c0.49-0.07,1.03-0.05,1.51-0.19
		c-1.28,0.9-2.53,1.85-3.93,2.58c-1.45,0.75-3.88,1.04-4.39,2.84c-0.08,0.27,2.1,0.92,3.46,0.13c0.11-0.07,0.47-0.27,0.45-0.36
		c3.22-2.38,6.23-4.66,10.14-5.74c4.13-1.13,8.53-0.89,12.75-0.58c4.2,0.31,8.4,0.8,12.62,0.8c1.98,0,3.96-0.11,5.91-0.4
		c1.33-0.2,2.64-0.48,3.81-1.12c0.75,1.9,2.88,3.09,4.72,3.7c2.9,0.95,6.04,1.07,9.07,1.03c0.54,0.92,1.26,1.74,1.98,2.54
		c1.03,1.14,2.07,2.28,3.24,3.28c1.28,1.08,2.84,1.67,4.12,2.71c1.04,0.85,1.99,1.4,3.31,1.43c0.13,0.1,0.33,0.1,0.41-0.03
		c0.12-0.08,0.14-0.27,0.02-0.34c-0.05-0.77-0.14-1.56-0.71-2.13c-0.44-0.43-1.03-0.59-1.59-0.8c-0.72-0.27-1.4-0.62-2.04-1.05
		c-2-1.34-3.56-3.21-5.07-5.09c0.59,0.53,1.31,0.86,2.04,1.2c1.23,0.57,2.34,1.22,3.41,2.06c1.86,1.47,3.75,3.1,6.27,2.97
		C138.54,63.62,138.64,63.35,138.56,63.19z M95.81,5.32L95.81,5.32L95.81,5.32L95.81,5.32z"/>
</g>
</svg>
