<?xml version="1.0" encoding="utf-8"?>
<!-- Generator: Adobe Illustrator 23.0.3, SVG Export Plug-In . SVG Version: 6.00 Build 0)  -->
<svg version="1.1" id="Warstwa_1" xmlns="http://www.w3.org/2000/svg" xmlns:xlink="http://www.w3.org/1999/xlink" x="0px" y="0px"
	 viewBox="0 0 688 598" style="enable-background:new 0 0 688 598;" xml:space="preserve">
<style type="text/css">
	.st0{fill:#960404;}
	.st1{fill:#840202;}
	.st2{fill:#590202;}
	.st3{fill:#A50000;}
	.st4{fill:#7A0505;}
	.st5{fill:#EFC75E;}
	.st6{fill:#E7BF55;}
	.st7{fill:#DBB551;}
	.st8{fill:#F7E3AF;}
	.st9{fill:#F1D999;}
	.st10{fill:#F2F2F2;}
</style>
<polyline class="st0" points="145,311 122,341 39,365 0,359 23,334 101,311 "/>
<polyline class="st1" points="129,332 122,341 39,365 25,363 47,386 124,365 129,332 "/>
<polygon class="st2" points="39,365 47,386 32,364 39,365 "/>
<polygon class="st2" points="118,342 124,365 122,341 "/>
<polygon class="st3" points="39,365 25,339 0,359 "/>
<polyline class="st0" points="596,421 671,457 688,479 653,489.1 575,450 563,419 "/>
<polygon class="st1" points="578,467 653,505 667,485 653,489.1 575,450 575,450 "/>
<polygon class="st4" points="578,467 602,479 589,457 575,450 "/>
<polygon class="st2" points="653,489 653,503 659,487 "/>
<polyline class="st3" points="563,419 575,450 591,428 "/>
<polygon class="st0" points="482,464 560,441 604,441 581,471 498,495 459,489 "/>
<polygon class="st1" points="506,516 583,495 588,462 581,471 498,495 484,493 "/>
<polygon class="st2" points="498,495 506,516 491,494 498,495 "/>
<polygon class="st2" points="577,472 583,495 581,471 "/>
<polygon class="st3" points="498,495 484,469 459,489 "/>
<path class="st5" d="M95,125.6L347.1,0.4l252.1,125.2v16.5L347.1,267.4L95,142.6V125.6z"/>
<path class="st6" d="M95,125.6l252.1,125.2l252.1-125.2v250.9L346.3,501.7L95,376.5V125.6z"/>
<path class="st7" d="M347.1,501.4V250.9L96.6,126.4H95v250.1l251.3,125.2L347.1,501.4z"/>
<path class="st8" d="M197.8,74.8l251.7,125.2l51.2-25.2L248.2,49.6L197.8,74.8z"/>
<path class="st9" d="M449.5,200.1l51.2-25.2v78.8l-13.8-2.4L472.3,269l-22.8-1.6C449.5,267.4,449.5,200.1,449.5,200.1z"/>
<path class="st10" d="M295.1,350.9L210,308.4c-4.7-2.4-8.7,0.4-8.7,6.3v57.1c0,5.9,3.9,12.6,8.7,15l85.5,42.5
	c4.7,2.4,8.7-0.4,8.7-6.3v-57.5C303.7,359.6,299.8,353.3,295.1,350.9z M275.8,397.8l-54.4-27.2c-2.4-1.2-4.3-4.7-4.3-7.9
	s2-4.7,4.3-3.5l54.4,27.2c2.4,1.2,4.3,4.7,4.3,7.9S278.1,399,275.8,397.8z M283.7,378.1l-62.2-31.5c-2.4-1.2-4.3-4.7-4.3-7.9
	s2-4.7,4.3-3.5l62.2,31.5c2.4,1.2,4.3,4.7,4.3,7.9C288,378.1,286,379.3,283.7,378.1z"/>
<polygon class="st0" points="288,546 366,523 410,523 387,553 304,577 265,571 "/>
<polygon class="st1" points="312,598 389,577 394,544 387,553 304,577 290,575 "/>
<polygon class="st2" points="304,577 312,598 297,576 304,577 "/>
<polygon class="st2" points="383,554 389,577 387,553 "/>
<polygon class="st3" points="304,577 290,551 265,571 "/>
<polygon class="st0" points="402.9,486.9 484.3,486.3 526.5,498.5 496.1,521 409.7,521.1 373.9,504.5 "/>
<polygon class="st1" points="411.6,543.5 491.4,544.6 505.4,514.3 496.1,521 409.7,521.1 396.8,515.3 "/>
<polygon class="st2" points="409.7,521.1 411.6,543.5 403.3,518.2 409.7,521.1 "/>
<polygon class="st2" points="492,520.8 491.4,544.6 496.1,521 "/>
<polygon class="st3" points="409.7,521.1 403.5,492.2 373.9,504.5 "/>
<polygon class="st0" points="426,539 504,516 548,516 525,546 442,570 403,564 "/>
<polygon class="st1" points="450,591 527,570 532,537 525,546 442,570 428,568 "/>
<polygon class="st2" points="442,570 450,591 435,569 442,570 "/>
<polygon class="st2" points="521,547 527,570 525,546 "/>
<polygon class="st3" points="442,570 428,544 403,564 "/>
<polygon class="st0" points="131,439 206,475 223,497 188,507.1 110,468 98,437 "/>
<polygon class="st1" points="113,485 188,523 202,503 188,507.1 110,468 110,468 "/>
<polygon class="st4" points="113,485 137,497 124,475 110,468 "/>
<polygon class="st2" points="188,507 188,521 194,505 "/>
<polygon class="st3" points="110,468 126,446 98,437 "/>
</svg>
