<svg height="512pt" viewBox="-89 0 511 512" width="512pt" xmlns="http://www.w3.org/2000/svg"><path d="m143.789062 73.511719h47.339844v296.558593h-47.339844zm0 0" fill="#ffd399"/><path d="m167.457031 73.511719h23.671875v296.558593h-23.671875zm0 0" fill="#ffb655"/><path d="m334.417969 337.582031v157.941407c0 9.097656-7.378907 16.476562-16.476563 16.476562h-300.964844c-9.097656 0-16.476562-7.378906-16.476562-16.476562v-157.941407c0-22.746093 18.441406-41.1875 41.1875-41.1875h251.542969c22.742187 0 41.1875 18.441407 41.1875 41.1875zm0 0" fill="#5ecef4"/><path d="m334.417969 337.582031v157.941407c0 9.097656-7.378907 16.476562-16.476563 16.476562h-150.484375v-215.605469h125.773438c22.742187 0 41.1875 18.441407 41.1875 41.1875zm0 0" fill="#2fc0f0"/><path d="m334.417969 463.710938v31.8125c0 9.097656-7.378907 16.476562-16.476563 16.476562h-300.964844c-9.097656 0-16.476562-7.378906-16.476562-16.476562v-31.8125zm0 0" fill="#beebfa"/><path d="m334.417969 463.710938v31.8125c0 9.097656-7.378907 16.476562-16.476563 16.476562h-150.484375v-48.289062zm0 0" fill="#9ee2f8"/><path d="m69.691406 340.234375c-8.527344 0-15.4375 6.914063-15.4375 15.4375v48.671875c0 8.523438 6.910156 15.433594 15.4375 15.433594 8.523438 0 15.433594-6.910156 15.433594-15.433594v-48.671875c0-8.527344-6.910156-15.4375-15.433594-15.4375zm0 0" fill="#beebfa"/><path d="m134.867188 340.234375c-8.523438 0-15.4375 6.914063-15.4375 15.4375v48.671875c0 8.523438 6.914062 15.433594 15.4375 15.433594 8.527343 0 15.4375-6.910156 15.4375-15.433594v-48.671875c0-8.527344-6.910157-15.4375-15.4375-15.4375zm0 0" fill="#beebfa"/><path d="m200.046875 340.234375c-8.523437 0-15.4375 6.914063-15.4375 15.4375v48.671875c0 8.523438 6.914063 15.433594 15.4375 15.433594 8.527344 0 15.4375-6.910156 15.4375-15.433594v-48.671875c0-8.527344-6.910156-15.4375-15.4375-15.4375zm0 0" fill="#9ee2f8"/><path d="m265.226562 340.234375c-8.523437 0-15.4375 6.914063-15.4375 15.4375v48.671875c0 8.523438 6.914063 15.433594 15.4375 15.433594 8.527344 0 15.4375-6.910156 15.4375-15.433594v-48.671875c0-8.527344-6.910156-15.4375-15.4375-15.4375zm0 0" fill="#9ee2f8"/><path d="m215.3125 0h-99.824219c-22.417969 0-40.652343 18.238281-40.652343 40.652344v7.644531c0 22.414063 18.234374 40.652344 40.652343 40.652344h99.824219c22.414062 0 40.652344-18.238281 40.652344-40.652344v-7.644531c0-22.414063-18.238282-40.652344-40.652344-40.652344zm9.777344 48.296875c0 5.394531-4.382813 9.777344-9.777344 9.777344h-99.824219c-5.394531 0-9.777343-4.382813-9.777343-9.777344v-7.644531c0-5.394532 4.382812-9.777344 9.777343-9.777344h99.824219c5.394531 0 9.777344 4.382812 9.777344 9.777344zm0 0" fill="#ff5b5b"/><path d="m255.964844 40.652344v7.644531c0 22.414063-18.238282 40.652344-40.652344 40.652344h-47.855469v-30.875h47.855469c5.394531 0 9.777344-4.382813 9.777344-9.777344v-7.644531c0-5.394532-4.382813-9.777344-9.777344-9.777344h-47.855469v-30.875h47.855469c22.414062 0 40.652344 18.238281 40.652344 40.652344zm0 0" fill="#ff3939"/></svg>