<svg height="512pt" viewBox="-124 0 512 512" width="512pt" xmlns="http://www.w3.org/2000/svg"><path d="m194.207031 35.308594c-16.773437 0-30.898437-12.355469-34.425781-28.246094-.882812-3.53125-4.414062-7.0625-8.828125-7.0625h-37.078125c-4.414062 0-7.945312 3.53125-8.828125 7.0625-3.53125 15.890625-17.652344 28.246094-34.425781 28.246094-17.65625 0-31.78125-12.355469-34.429688-28.246094-.882812-3.53125-4.410156-7.0625-8.824218-7.0625h-18.539063c-5.296875 0-8.828125 3.53125-8.828125 8.828125v494.34375c0 5.296875 3.53125 8.828125 8.828125 8.828125h18.539063c4.414062 0 7.941406-3.53125 8.824218-7.0625 2.648438-15.890625 16.773438-28.246094 34.429688-28.246094 16.773437 0 30.894531 12.355469 34.425781 28.246094.882813 4.414062 4.414063 7.0625 8.828125 7.0625h37.078125c4.414063 0 7.945313-3.53125 8.828125-7.0625 3.527344-15.890625 17.652344-28.246094 34.425781-28.246094 16.773438 0 30.894531 12.355469 34.425781 28.246094.882813 4.414062 4.414063 7.0625 8.828126 7.0625h18.539062c5.296875 0 8.828125-3.53125 8.828125-8.828125v-494.34375c0-5.296875-3.53125-8.828125-8.828125-8.828125h-18.539062c-4.414063 0-7.945313 3.53125-8.828126 7.0625-3.53125 15.890625-17.652343 28.246094-34.425781 28.246094zm0 0" fill="#f9eab0"/><g fill="#c3b372"><path d="m194.207031 97.101562h-35.308593c-5.296876 0-8.828126-3.527343-8.828126-8.824218s3.53125-8.828125 8.828126-8.828125h35.308593c5.296875 0 8.828125 3.53125 8.828125 8.828125s-4.414062 8.824218-8.828125 8.824218zm-88.277343 0h-35.308594c-5.296875 0-8.828125-3.527343-8.828125-8.824218s3.53125-8.828125 8.828125-8.828125h35.308594c5.296874 0 8.828124 3.53125 8.828124 8.828125s-4.414062 8.824218-8.828124 8.824218zm0 0"/><path d="m220.691406 185.378906h-176.554687c-5.296875 0-8.828125-3.53125-8.828125-8.828125v-35.308593c0-5.296876 3.53125-8.828126 8.828125-8.828126h176.554687c5.292969 0 8.824219 3.53125 8.824219 8.828126v35.308593c0 5.296875-4.414063 8.828125-8.824219 8.828125zm-167.726562-17.65625h158.898437v-17.652344h-158.898437zm0 0"/><path d="m158.898438 229.515625h-114.761719c-5.296875 0-8.828125-3.53125-8.828125-8.824219 0-5.296875 3.53125-8.828125 8.828125-8.828125h114.761719c5.292968 0 8.824218 3.53125 8.824218 8.828125 0 5.292969-4.414062 8.824219-8.824218 8.824219zm0 0"/><path d="m220.691406 229.515625h-17.65625c-5.296875 0-8.828125-3.53125-8.828125-8.824219 0-5.296875 3.53125-8.828125 8.828125-8.828125h17.65625c5.292969 0 8.824219 3.53125 8.824219 8.828125 0 5.292969-4.414063 8.824219-8.824219 8.824219zm0 0"/><path d="m158.898438 300.136719h-114.761719c-5.296875 0-8.828125-3.53125-8.828125-8.828125 0-5.292969 3.53125-8.824219 8.828125-8.824219h114.761719c5.292968 0 8.824218 3.53125 8.824218 8.824219 0 5.296875-4.414062 8.828125-8.824218 8.828125zm0 0"/><path d="m220.691406 300.136719h-17.65625c-5.296875 0-8.828125-3.53125-8.828125-8.828125 0-5.292969 3.53125-8.824219 8.828125-8.824219h17.65625c5.292969 0 8.824219 3.53125 8.824219 8.824219 0 5.296875-4.414063 8.828125-8.824219 8.828125zm0 0"/><path d="m220.691406 264.828125h-114.761718c-5.296876 0-8.828126-3.53125-8.828126-8.828125s3.53125-8.828125 8.828126-8.828125h114.761718c5.292969 0 8.824219 3.53125 8.824219 8.828125s-4.414063 8.828125-8.824219 8.828125zm0 0"/><path d="m61.792969 264.828125h-17.65625c-5.296875 0-8.828125-3.53125-8.828125-8.828125s3.53125-8.828125 8.828125-8.828125h17.65625c5.296875 0 8.828125 3.53125 8.828125 8.828125s-4.414063 8.828125-8.828125 8.828125zm0 0"/><path d="m220.691406 335.449219h-114.761718c-5.296876 0-8.828126-3.53125-8.828126-8.828125s3.53125-8.828125 8.828126-8.828125h114.761718c5.292969 0 8.824219 3.53125 8.824219 8.828125s-4.414063 8.828125-8.824219 8.828125zm0 0"/><path d="m61.792969 335.449219h-17.65625c-5.296875 0-8.828125-3.53125-8.828125-8.828125s3.53125-8.828125 8.828125-8.828125h17.65625c5.296875 0 8.828125 3.53125 8.828125 8.828125s-4.414063 8.828125-8.828125 8.828125zm0 0"/></g><path d="m35.308594 432.550781c-5.292969 0-8.824219-3.53125-8.824219-8.828125v-44.136718c0-5.296876 3.53125-8.828126 8.824219-8.828126 5.296875 0 8.828125 3.53125 8.828125 8.828126v44.136718c0 5.296875-4.414063 8.828125-8.828125 8.828125zm0 0" fill="#fff"/><path d="m229.515625 432.550781c-5.296875 0-8.824219-3.53125-8.824219-8.828125v-44.136718c0-5.296876 3.527344-8.828126 8.824219-8.828126s8.828125 3.53125 8.828125 8.828126v44.136718c0 5.296875-4.414062 8.828125-8.828125 8.828125zm0 0" fill="#fff"/><path d="m79.449219 406.070312c-5.296875 0-8.828125-3.53125-8.828125-8.828124v-17.65625c0-5.296876 3.53125-8.828126 8.828125-8.828126s8.828125 3.53125 8.828125 8.828126v17.65625c0 5.296874-4.414063 8.828124-8.828125 8.828124zm0 0" fill="#fff"/><path d="m185.378906 406.070312c-5.296875 0-8.828125-3.53125-8.828125-8.828124v-17.65625c0-5.296876 3.53125-8.828126 8.828125-8.828126s8.828125 3.53125 8.828125 8.828126v17.65625c0 5.296874-4.414062 8.828124-8.828125 8.828124zm0 0" fill="#fff"/><path d="m150.070312 406.070312c-5.296874 0-8.828124-3.53125-8.828124-8.828124v-17.65625c0-5.296876 3.53125-8.828126 8.828124-8.828126 5.296876 0 8.828126 3.53125 8.828126 8.828126v17.65625c0 5.296874-4.414063 8.828124-8.828126 8.828124zm0 0" fill="#fff"/><path d="m114.757812 406.070312c-5.296874 0-8.828124-3.53125-8.828124-8.828124v-17.65625c0-5.296876 3.53125-8.828126 8.828124-8.828126 5.296876 0 8.828126 3.53125 8.828126 8.828126v17.65625c0 5.296874-4.414063 8.828124-8.828126 8.828124zm0 0" fill="#fff"/><path d="m247.171875 79.449219c-5.296875 0-8.828125 3.53125-8.828125 8.828125s3.53125 8.824218 8.828125 8.824218h17.65625v-17.652343zm0 0" fill="#c3b372"/><path d="m17.65625 97.101562c5.296875 0 8.828125-3.527343 8.828125-8.824218s-4.414063-8.828125-8.828125-8.828125h-17.65625v17.652343zm0 0" fill="#c3b372"/></svg>